<?xml version="1.0" encoding="utf-8"?>
<!-- Generator: Adobe Illustrator 16.0.0, SVG Export Plug-In . SVG Version: 6.00 Build 0)  -->
<!DOCTYPE svg PUBLIC "-//W3C//DTD SVG 1.1//EN" "http://www.w3.org/Graphics/SVG/1.1/DTD/svg11.dtd">
<svg version="1.1" id="Layer_1" xmlns="http://www.w3.org/2000/svg" xmlns:xlink="http://www.w3.org/1999/xlink" x="0px" y="0px"
	 width="690px" height="301.243px" viewBox="0 0 690 301.243" enable-background="new 0 0 690 301.243" xml:space="preserve">
<g>
	<path fill="#B23967" d="M231.472,156.636v98.376h22.508v-98.383c-0.269,0.033-0.537,0.056-0.813,0.056h-0.827
		c-1.041,4.571-2.379,9.082-4.001,13.462l-4.564,12.335l-5.797-11.808c-0.125-0.25-2.641-5.43-4.744-13.989h-1.016
		C231.964,156.685,231.717,156.659,231.472,156.636z"/>
	<g>
		<g>
			<defs>
				<rect id="SVGID_1_" x="-45" y="146.406" width="800" height="154.836"/>
			</defs>
			<clipPath id="SVGID_2_">
				<use xlink:href="#SVGID_1_"  overflow="visible"/>
			</clipPath>
			<g clip-path="url(#SVGID_2_)">
				<path fill="#B23967" d="M294.979,220.883c34.129,0,61.793,27.277,61.793,60.922c0,33.65-27.664,60.922-61.793,60.922
					s-61.794-27.273-61.794-60.922C233.185,248.161,260.85,220.883,294.979,220.883z"/>
				<path fill="#B23967" d="M105.959,227.23c30.572,0,55.356,24.435,55.356,54.575c0,30.146-24.784,54.576-55.356,54.576
					c-30.573,0-55.357-24.43-55.357-54.576C50.602,251.665,75.386,227.229,105.959,227.23z"/>
				<path fill="#B23967" d="M197.27,191.836c23.907,0,43.288,19.11,43.288,42.676c0,23.572-19.381,42.676-43.288,42.676
					c-23.905,0-43.286-19.105-43.286-42.676C153.983,210.946,173.364,191.836,197.27,191.836z"/>
				<path fill="#B23967" d="M276.148,189.556c16.656,0,30.156,13.312,30.156,29.735c0,16.418-13.5,29.729-30.156,29.729
					c-16.654,0-30.155-13.311-30.155-29.729C245.993,202.868,259.494,189.556,276.148,189.556z"/>
				<path fill="#B23967" d="M235.905,198.045c20.167,0,36.516,16.117,36.516,36.004c0,19.88-16.349,35.996-36.516,35.996
					c-20.169,0-36.519-16.116-36.519-35.996C199.387,214.163,215.735,198.045,235.905,198.045z"/>
				<path fill="#B23967" d="M511.863,263.825c61.057-8.465,117.517,33.467,126.105,93.66
					c8.591,60.191-33.942,115.855-94.999,124.324c-61.055,8.471-117.514-33.461-126.104-93.658
					C408.275,327.958,450.809,272.293,511.863,263.825z"/>
				<path fill="#B23967" d="M396.87,227.301c46.189,1.9,82.074,40.355,80.149,85.895c-1.924,45.533-40.928,80.916-87.118,79.016
					c-46.19-1.895-82.075-40.35-80.149-85.889C311.675,260.786,350.68,225.407,396.87,227.301z"/>
				<path fill="#B23967" d="M582.283,275.922c120.59,0,218.346,96.373,218.346,215.262s-97.756,215.271-218.346,215.271
					c-120.591,0-218.35-96.383-218.35-215.271S461.692,275.922,582.283,275.922z"/>
				<path fill="#B23967" d="M277.428,256.064c46.229,0,83.706,36.944,83.706,82.524s-37.477,82.525-83.706,82.525
					c-46.23,0-83.71-36.945-83.71-82.525S231.196,256.063,277.428,256.064z"/>
				<path fill="#B23967" d="M196.298,237.588c50.842,10.593,83.353,59.813,72.607,109.938
					c-10.741,50.125-60.666,82.176-111.51,71.584c-50.843-10.588-83.353-59.809-72.608-109.939
					C95.529,259.045,145.454,226.995,196.298,237.588z"/>
				<path fill="#B23967" d="M161.167,241.274c128.054,0,231.862,102.338,231.862,228.588S289.221,698.459,161.167,698.459
					S-70.7,596.112-70.7,469.862S33.114,241.274,161.167,241.274z"/>
			</g>
		</g>
	</g>
	<path fill="#B23967" d="M194.723,169.709c0,0,6.523-22.125,27.435-27.854l-0.203-0.71c1.921,4.016,3.324,5.963,3.324,5.963
		c1.448-0.591,2.881-1.08,4.292-1.497l0.918,4.042c0.183,0.81,0.898,1.38,1.727,1.38h5.554c2.08,10.656,5.273,17.15,5.273,17.15
		c2.179-5.89,3.689-11.638,4.683-17.15h5.439c0.826,0,1.544-0.57,1.727-1.38l0.905-3.997c2.528,0.757,3.975,1.452,3.975,1.452
		c0.891-1.677,1.724-3.439,2.51-5.261l-0.002,0.008c20.911,5.729,27.432,27.854,27.432,27.854
		c12.214-44.018-18.608-58.944-18.608-58.944l-0.002,0.01c1.295-7.033,1.824-11.897,1.824-11.897
		c2.446-27.354-1.947-48.922-8.118-64.984c-6.203-16.137-14.198-26.713-18.862-31.99c-2.093-2.367-5.733-2.562-8.029-0.389
		c-8.923,8.44-15.228,19.762-19.475,32.379c-6.637,19.718-8.245,42.601-6.899,62.645c0.349,5.203,0.905,9.972,1.593,14.331
		C210.615,112.19,183.064,127.685,194.723,169.709z"/>
</g>
</svg>
