<?xml version="1.0" encoding="utf-8"?>
<!-- Generator: Adobe Illustrator 16.0.0, SVG Export Plug-In . SVG Version: 6.00 Build 0)  -->
<!DOCTYPE svg PUBLIC "-//W3C//DTD SVG 1.1//EN" "http://www.w3.org/Graphics/SVG/1.1/DTD/svg11.dtd">
<svg version="1.1" id="Layer_1" xmlns="http://www.w3.org/2000/svg" xmlns:xlink="http://www.w3.org/1999/xlink" x="0px" y="0px"
	 width="690px" height="301.243px" viewBox="0 0 690 301.243" enable-background="new 0 0 690 301.243" xml:space="preserve">
<g>
	<path fill="#B23967" d="M457.783,156.685h-1.015c-2.104,8.559-4.62,13.74-4.745,13.99l-5.796,11.807l-4.565-12.335
		c-1.622-4.38-2.96-8.891-4.001-13.462h-0.827c-0.276,0-0.545-0.023-0.813-0.055v98.382h22.507v-98.376
		C458.283,156.659,458.036,156.685,457.783,156.685z"/>
	<g>
		<defs>
			<rect id="SVGID_1_" x="-65" y="146.406" width="800" height="154.837"/>
		</defs>
		<clipPath id="SVGID_2_">
			<use xlink:href="#SVGID_1_"  overflow="visible"/>
		</clipPath>
		<g clip-path="url(#SVGID_2_)">
			<path fill="#B23967" d="M456.815,281.805c0,33.649-27.665,60.922-61.794,60.922c-34.128,0-61.793-27.272-61.793-60.922
				c0-33.644,27.665-60.921,61.793-60.921C429.15,220.884,456.815,248.161,456.815,281.805z"/>
			<path fill="#B23967" d="M639.398,281.805c0,30.146-24.784,54.576-55.357,54.576c-30.572,0-55.356-24.43-55.356-54.576
				c0-30.141,24.784-54.575,55.356-54.575C614.614,227.229,639.398,251.664,639.398,281.805z"/>
			<path fill="#B23967" d="M536.017,234.512c0,23.571-19.381,42.676-43.287,42.676c-23.907,0-43.288-19.104-43.288-42.676
				c0-23.565,19.381-42.676,43.288-42.676C516.636,191.836,536.017,210.946,536.017,234.512z"/>
			<path fill="#B23967" d="M444.007,219.291c0,16.418-13.501,29.729-30.156,29.729s-30.156-13.311-30.156-29.729
				c0-16.424,13.501-29.735,30.156-29.735S444.007,202.867,444.007,219.291z"/>
			<path fill="#B23967" d="M490.613,234.049c0,19.88-16.349,35.997-36.518,35.997c-20.167,0-36.516-16.117-36.516-35.997
				c0-19.886,16.349-36.003,36.516-36.003C474.265,198.046,490.613,214.163,490.613,234.049z"/>
			<path fill="#B23967" d="M273.135,388.151c-8.591,60.197-65.05,102.129-126.105,93.659
				c-61.057-8.469-103.59-64.133-94.999-124.326c8.589-60.192,65.049-102.124,126.105-93.659
				C239.191,272.294,281.724,327.958,273.135,388.151z"/>
			<path fill="#B23967" d="M380.248,306.323c1.926,45.539-33.959,83.993-80.15,85.889c-46.19,1.899-85.194-33.483-87.118-79.017
				c-1.925-45.539,33.96-83.993,80.15-85.894C339.321,225.407,378.325,260.785,380.248,306.323z"/>
			<path fill="#B23967" d="M326.066,491.184c0,118.889-97.759,215.271-218.349,215.271s-218.346-96.383-218.346-215.271
				s97.756-215.261,218.346-215.261S326.066,372.295,326.066,491.184z"/>
			<path fill="#B23967" d="M496.282,338.588c0,45.581-37.479,82.525-83.71,82.525c-46.229,0-83.706-36.944-83.706-82.525
				c0-45.58,37.478-82.524,83.706-82.524C458.804,256.063,496.282,293.008,496.282,338.588z"/>
			<path fill="#B23967" d="M605.213,309.171c10.744,50.131-21.766,99.35-72.608,109.938
				c-50.844,10.593-100.769-21.458-111.51-71.583c-10.745-50.125,21.765-99.345,72.607-109.938
				C544.546,226.995,594.471,259.046,605.213,309.171z"/>
			<path fill="#B23967" d="M760.7,469.861c0,126.25-103.813,228.598-231.867,228.598S296.97,596.111,296.97,469.861
				s103.81-228.587,231.863-228.587S760.7,343.611,760.7,469.861z"/>
		</g>
	</g>
	<path fill="#B23967" d="M476.867,110.87c0.688-4.359,1.244-9.128,1.593-14.331c1.346-20.044-0.263-42.927-6.899-62.645
		c-4.248-12.617-10.552-23.939-19.475-32.379c-2.296-2.173-5.937-1.978-8.029,0.389c-4.664,5.277-12.66,15.853-18.863,31.99
		c-6.17,16.062-10.564,37.63-8.118,64.984c0,0,0.53,4.864,1.825,11.897l-0.003-0.01c0,0-30.822,14.927-18.608,58.945
		c0,0,6.521-22.126,27.432-27.855l-0.002-0.008c0.786,1.822,1.619,3.584,2.509,5.261c0,0,1.447-0.695,3.975-1.452l0.905,3.997
		c0.183,0.81,0.901,1.38,1.727,1.38h5.439c0.994,5.513,2.504,11.26,4.683,17.15c0,0,3.193-6.494,5.273-17.15h5.554
		c0.828,0,1.544-0.57,1.727-1.38l0.918-4.042c1.411,0.417,2.843,0.906,4.292,1.497c0,0,1.403-1.947,3.324-5.963l-0.203,0.71
		c20.911,5.729,27.434,27.855,27.434,27.855C506.936,127.685,479.385,112.19,476.867,110.87z"/>
</g>
</svg>
